<svg width="342" height="47" viewBox="0 0 342 47" fill="none" xmlns="http://www.w3.org/2000/svg">
<path d="M23.647 12.1578C26.1816 12.1578 28.4748 12.6808 30.5266 13.7269C32.5784 14.7326 34.1876 16.3218 35.3544 18.4943C36.5613 20.6668 37.1648 23.483 37.1648 26.9429V45.7712H23.5263V29.2964C23.5263 27.2446 23.1642 25.7963 22.4401 24.9514C21.7159 24.0663 20.7302 23.6238 19.4831 23.6238C18.5577 23.6238 17.6928 23.8451 16.8881 24.2876C16.1237 24.6899 15.5002 25.3739 15.0174 26.3394C14.5748 27.305 14.3536 28.6125 14.3536 30.262V45.7712H0.71511V12.7613H13.6897V22.4168L11.0948 19.6409C12.3822 17.1465 14.1122 15.2758 16.2847 14.0286C18.4974 12.7814 20.9515 12.1578 23.647 12.1578ZM60.0915 46.3747C56.0684 46.3747 52.5481 45.6304 49.5307 44.1418C46.5536 42.6532 44.2403 40.6216 42.5908 38.0467C40.9413 35.4317 40.1166 32.4948 40.1166 29.2361C40.1166 25.8969 40.9212 22.9398 42.5305 20.365C44.18 17.7902 46.4128 15.7787 49.229 14.3303C52.0854 12.882 55.2838 12.1578 58.8242 12.1578C62.0829 12.1578 65.0802 12.8015 67.8159 14.0889C70.5919 15.3763 72.8046 17.2873 74.4541 19.8219C76.1438 22.3565 76.9887 25.4945 76.9887 29.2361C76.9887 29.7188 76.9686 30.262 76.9283 30.8654C76.8881 31.4287 76.8479 31.9517 76.8076 32.4345H51.4015V25.8566H69.566L64.4365 27.6067C64.4365 26.3193 64.1951 25.233 63.7123 24.3479C63.2698 23.4226 62.6462 22.7186 61.8416 22.2358C61.0369 21.7128 60.0714 21.4513 58.9449 21.4513C57.8184 21.4513 56.8327 21.7128 55.9879 22.2358C55.1833 22.7186 54.5597 23.4226 54.1171 24.3479C53.6746 25.233 53.4533 26.3193 53.4533 27.6067V29.6585C53.4533 31.0666 53.7349 32.2735 54.2982 33.2793C54.8614 34.2851 55.666 35.0495 56.7121 35.5725C57.7581 36.0553 59.0254 36.2967 60.5139 36.2967C62.0427 36.2967 63.2899 36.0955 64.2554 35.6932C65.2612 35.2909 66.3072 34.6874 67.3935 33.8828L74.5145 41.0641C72.9052 42.7941 70.9137 44.1217 68.5401 45.047C66.2067 45.9321 63.3905 46.3747 60.0915 46.3747ZM86.9794 45.7712L75.5135 12.7613H88.4278L97.1178 39.5554H90.902L100.014 12.7613H111.601L120.291 39.5554H114.256L123.248 12.7613H135.197L123.731 45.7712H110.454L103.515 24.529H107.497L100.256 45.7712H86.9794ZM148.34 46.3747C145.524 46.3747 142.748 46.0729 140.012 45.4694C137.277 44.866 135.064 44.0815 133.374 43.1159L137.116 34.1242C138.685 35.0495 140.495 35.7737 142.547 36.2967C144.639 36.8197 146.671 37.0812 148.642 37.0812C150.291 37.0812 151.398 36.9404 151.961 36.6588C152.564 36.3771 152.866 35.9949 152.866 35.5122C152.866 35.0294 152.524 34.6874 151.84 34.4863C151.156 34.2449 150.251 34.0638 149.125 33.9431C147.998 33.8224 146.751 33.6816 145.383 33.5207C144.056 33.3196 142.708 33.0379 141.34 32.6759C139.972 32.3138 138.725 31.7706 137.598 31.0465C136.472 30.3223 135.567 29.3568 134.883 28.1498C134.199 26.9026 133.857 25.3336 133.857 23.4427C133.857 21.3507 134.48 19.4598 135.728 17.7701C137.015 16.0804 138.906 14.7326 141.4 13.7269C143.935 12.6808 147.053 12.1578 150.754 12.1578C153.168 12.1578 155.582 12.3791 157.996 12.8217C160.41 13.2642 162.482 13.9481 164.211 14.8735L160.47 23.8652C158.78 22.9399 157.111 22.3163 155.461 21.9944C153.852 21.6323 152.343 21.4513 150.935 21.4513C149.205 21.4513 148.018 21.6122 147.375 21.9341C146.771 22.2559 146.469 22.618 146.469 23.0203C146.469 23.5031 146.811 23.8652 147.495 24.1066C148.179 24.3479 149.084 24.529 150.211 24.6497C151.337 24.7704 152.564 24.9313 153.892 25.1325C155.26 25.2934 156.608 25.575 157.935 25.9773C159.303 26.3394 160.55 26.8825 161.677 27.6067C162.803 28.3309 163.709 29.3165 164.393 30.5637C165.076 31.7706 165.418 33.3196 165.418 35.2104C165.418 37.1818 164.795 39.0324 163.548 40.7624C162.3 42.4521 160.41 43.82 157.875 44.866C155.34 45.8718 152.162 46.3747 148.34 46.3747ZM268.942 46.3747C266.689 46.3747 264.798 45.6505 263.269 44.2022C261.741 42.7136 260.976 40.8227 260.976 38.5295C260.976 36.1961 261.741 34.3253 263.269 32.9172C264.798 31.5091 266.689 30.8051 268.942 30.8051C271.195 30.8051 273.086 31.5091 274.615 32.9172C276.143 34.3253 276.908 36.1961 276.908 38.5295C276.908 40.8227 276.143 42.7136 274.615 44.2022C273.086 45.6505 271.195 46.3747 268.942 46.3747ZM279.304 45.7712V12.7613H292.279V22.7186L290.167 19.8823C291.173 17.3075 292.782 15.3763 294.995 14.0889C297.207 12.8015 299.863 12.1578 302.96 12.1578V24.2273C302.357 24.1468 301.814 24.0864 301.331 24.0462C300.888 24.006 300.426 23.9859 299.943 23.9859C297.891 23.9859 296.202 24.529 294.874 25.6152C293.586 26.6613 292.943 28.4918 292.943 31.1068V45.7712H279.304ZM318.775 46.3747C316.16 46.3747 313.786 45.8516 311.654 44.8056C309.562 43.7194 307.912 42.0498 306.705 39.7968C305.498 37.5036 304.895 34.5667 304.895 30.9861V12.7613H318.533V28.6326C318.533 30.966 318.915 32.5954 319.68 33.5207C320.444 34.446 321.49 34.9087 322.818 34.9087C323.622 34.9087 324.367 34.7075 325.051 34.3052C325.775 33.8627 326.358 33.1586 326.801 32.1931C327.243 31.1873 327.465 29.8798 327.465 28.2705V12.7613H341.103V45.7712H328.128V36.2363L330.723 38.8313C329.557 41.4061 327.887 43.3171 325.715 44.5642C323.582 45.7712 321.269 46.3747 318.775 46.3747Z" fill="black"/>
<path d="M167.738 45.7712V0.993612H181.376V45.7712H167.738ZM205.586 45.7712V39.9175L204.62 38.3485V27.2446C204.62 25.6354 204.117 24.4083 203.111 23.5634C202.146 22.7186 200.557 22.2961 198.344 22.2961C196.855 22.2961 195.347 22.5375 193.818 23.0203C192.289 23.4629 190.982 24.0864 189.895 24.8911L185.55 15.8994C187.481 14.6924 189.795 13.7671 192.49 13.1234C195.186 12.4797 197.821 12.1578 200.396 12.1578C206.068 12.1578 210.454 13.4251 213.551 15.9597C216.689 18.4943 218.258 22.5174 218.258 28.0291V45.7712H205.586ZM196.232 46.3747C193.536 46.3747 191.283 45.912 189.473 44.9867C187.662 44.0613 186.295 42.8343 185.369 41.3055C184.444 39.7365 183.981 38.0065 183.981 36.1156C183.981 33.9834 184.524 32.173 185.611 30.6844C186.697 29.1958 188.346 28.0694 190.559 27.305C192.812 26.5406 195.648 26.1584 199.068 26.1584H205.948V32.7362H201.241C199.792 32.7362 198.726 32.9776 198.042 33.4604C197.398 33.9029 197.077 34.5868 197.077 35.5122C197.077 36.2766 197.358 36.9203 197.921 37.4433C198.525 37.9261 199.33 38.1674 200.335 38.1674C201.261 38.1674 202.106 37.9261 202.87 37.4433C203.675 36.9203 204.258 36.1156 204.62 35.0294L206.37 39.0726C205.847 41.5268 204.741 43.3573 203.051 44.5642C201.361 45.7712 199.088 46.3747 196.232 46.3747ZM244.369 46.3747C241.352 46.3747 238.918 45.7712 237.067 44.5642C235.216 43.3573 233.869 41.4865 233.024 38.952C232.219 36.4174 231.817 33.1787 231.817 29.2361C231.817 25.3336 232.259 22.1352 233.144 19.6409C234.03 17.1063 235.397 15.2355 237.248 14.0286C239.139 12.7814 241.513 12.1578 244.369 12.1578C247.266 12.1578 249.921 12.8418 252.335 14.2096C254.749 15.5775 256.68 17.5488 258.128 20.1237C259.576 22.6582 260.301 25.6957 260.301 29.2361C260.301 32.7764 259.576 35.834 258.128 38.4088C256.68 40.9434 254.749 42.9147 252.335 44.3228C249.921 45.6907 247.266 46.3747 244.369 46.3747ZM222.342 45.7712V0.993612H235.981V17.1666L235.377 29.2361L235.317 41.3055V45.7712H222.342ZM241.11 35.7536C242.116 35.7536 243.021 35.5122 243.826 35.0294C244.63 34.5466 245.274 33.8224 245.757 32.8569C246.24 31.8511 246.481 30.6442 246.481 29.2361C246.481 27.7877 246.24 26.6009 245.757 25.6756C245.274 24.71 244.63 23.9859 243.826 23.5031C243.021 23.0203 242.116 22.7789 241.11 22.7789C240.104 22.7789 239.199 23.0203 238.395 23.5031C237.59 23.9859 236.946 24.71 236.464 25.6756C235.981 26.6009 235.739 27.7877 235.739 29.2361C235.739 30.6442 235.981 31.8511 236.464 32.8569C236.946 33.8224 237.59 34.5466 238.395 35.0294C239.199 35.5122 240.104 35.7536 241.11 35.7536Z" fill="#FF9000"/>
</svg>
